#!OML:ASF I:\Random Stuff\random\construction\7_22_03\Session 2\subj1.ASF
:FULLY-SPECIFIED
:DEGREES
593
root -8.13116 17.7786 -8.98875 -106.969 76.4369 239.445
lowerback 6.34648 4.03297 -1.95944
upperback 1.24558 5.23784 -4.73714
thorax -1.98848 2.66589 -4.21314
lowerneck -14.6481 15.0425 15.8516
upperneck 31.3032 22.5125 -8.4599
head 16.5263 10.55 -1.504
rclavicle 1.59028e-014 -2.22639e-014
rhumerus -35.6279 5.41829 -89.364
rradius 44.6328
rwrist -14.2972
rhand -19.4542 21.4979
rfingers 7.12502
rthumb 6.86668 -8.37073
lclavicle 1.59028e-014 -2.22639e-014
lhumerus 17.4495 27.6322 62.9563
lradius 58.3904
lwrist 14.4318
lhand -20.3818 66.9368
lfingers 7.12502
lthumb 5.97123 -816.833
rfemur -2.65028 1.28346 21.9147
rtibia 12.7023
rfoot 2.94449 1.84402
rtoes -23.4342
lfemur -25.5507 -5.509 -11.3374
ltibia 31.8686
lfoot -18.5691 10.2057
ltoes -14.3688
594
root -8.12987 17.7798 -8.98502 -106.839 76.4828 239.51
lowerback 6.36285 4.0388 -1.97061
upperback 1.21448 5.24173 -4.74083
thorax -2.03021 2.6672 -4.21425
lowerneck -14.7449 15.0425 15.8263
upperneck 31.585 22.4772 -8.19866
head 16.6323 10.5568 -1.39067
rclavicle -1.27222e-014 9.54166e-015
rhumerus -35.6496 5.34088 -89.2973
rradius 44.6743
rwrist -15.2696
rhand -19.1269 21.1696
rfingers 7.12502
rthumb 7.18265 -8.6885
lclavicle -1.27222e-014 9.54166e-015
lhumerus 17.3015 27.5413 62.7892
lradius 58.4403
lwrist 14.3155
lhand -20.2337 66.9394
lfingers 7.12502
lthumb 6.11417 -816.831
rfemur -2.64864 1.29464 21.8846
rtibia 12.5754
rfoot 2.95297 1.80388
rtoes -23.4841
lfemur -25.5952 -5.61298 -11.3342
ltibia 31.8611
lfoot -18.5913 10.3162
ltoes -13.8878
595
root -8.12835 17.7806 -8.97987 -106.823 76.5242 239.489
lowerback 6.40867 4.02919 -1.99698
upperback 1.19741 5.22389 -4.74792
thorax -2.07605 2.65806 -4.21061
lowerneck -14.7808 15.073 15.8233
upperneck 31.7716 22.4862 -7.98527
head 16.6964 10.5817 -1.29459
rclavicle 3.97569e-015 -1.59028e-014
rhumerus -35.6848 5.26632 -89.2838
rradius 44.7696
rwrist -16.2953
rhand -18.9072 20.9358
rfingers 7.12502
rthumb 7.39471 -8.91501
lclavicle 3.97569e-015 -1.59028e-014
lhumerus 17.0912 27.4204 62.5447
lradius 58.5081
lwrist 14.0192
lhand -19.9323 66.6337
lfingers 7.12502
lthumb 6.40516 -816.517
rfemur -2.61387 1.33541 21.8637
rtibia 12.4649
rfoot 2.90708 1.64442
rtoes -23.3915
lfemur -25.6313 -5.49588 -11.3707
ltibia 31.8598
lfoot -18.557 10.1673
ltoes -13.6776
596
root -8.12673 17.7813 -8.97556 -106.908 76.5256 239.374
lowerback 6.42895 4.01887 -1.98004
upperback 1.20428 5.21081 -4.74986
thorax -2.07927 2.65156 -4.2224
lowerneck -14.7943 15.0898 15.7686
upperneck 31.7889 22.4703 -7.84921
head 16.6723 10.5844 -1.23558
rclavicle 4.21423e-014 -3.18055e-015
rhumerus -35.7122 5.21883 -89.2617
rradius 44.8534
rwrist -17.2274
rhand -18.7961 20.6465
rfingers 7.12502
rthumb 7.50193 -9.20048
lclavicle 4.21423e-014 -3.18055e-015
lhumerus 16.9745 27.3655 62.3833
lradius 58.5968
lwrist 13.957
lhand -22.2063 67.9437
lfingers 7.12502
lthumb 4.2096 -817.882
rfemur -2.56138 1.21714 21.8854
rtibia 12.34
rfoot 2.8647 1.51054
rtoes -23.4164
lfemur -25.6918 -5.22508 -11.4081
ltibia 31.8793
lfoot -18.4447 9.86242
ltoes -13.8951
597
root -8.12426 17.783 -8.97302 -106.992 76.5063 239.254
lowerback 6.42755 4.02317 -1.93586
upperback 1.2099 5.21963 -4.73976
thorax -2.06922 2.65565 -4.23661
lowerneck -14.8274 15.0575 15.7481
upperneck 31.7842 22.3962 -7.80979
head 16.6559 10.5558 -1.23361
rclavicle -1.90833e-014 4.77083e-014
rhumerus -35.7783 5.15718 -89.1896
rradius 44.9367
rwrist -17.9941
rhand -18.5979 20.3343
rfingers 7.12502
rthumb 7.69328 -9.50573
lclavicle -1.90833e-014 4.77083e-014
lhumerus 16.919 27.2972 62.2873
lradius 58.633
lwrist 14.1307
lhand -22.8069 68.2467
lfingers 7.12502
lthumb 3.62954 -818.196
rfemur -2.50046 0.944856 21.9284
rtibia 12.1905
rfoot 2.83868 1.4425
rtoes -23.1404
lfemur -25.7693 -5.07761 -11.4075
ltibia 31.9195
lfoot -18.3729 9.70233
ltoes -13.9885
